<?xml version="1.0" encoding="iso-8859-1"?>
<!-- Generator: Adobe Illustrator 19.0.1, SVG Export Plug-In . SVG Version: 6.00 Build 0)  -->
<!DOCTYPE svg PUBLIC "-//W3C//DTD SVG 1.1//EN" "http://www.w3.org/Graphics/SVG/1.1/DTD/svg11.dtd">
<svg version="1.1" id="Layer_1" xmlns="http://www.w3.org/2000/svg" xmlns:xlink="http://www.w3.org/1999/xlink" x="0px" y="0px"
	 viewBox="0 0 477.93 95.253" style="enable-background:new 0 0 477.93 95.253;" xml:space="preserve">
<g>
	<g>
		<path style="fill:#FFFFFF;" d="M181.748,72.679c0.288,3.275,2.91,7.445,7.453,7.445h2.658c1.03,0,1.874-0.844,1.874-1.874V19.839
			h-0.011c-0.054-0.984-0.868-1.773-1.863-1.773h-8.236c-0.996,0-1.809,0.789-1.865,1.773h-0.01v4.746
			c-5.046-6.215-13.002-8.795-20.981-8.795c-18.135,0-32.837,14.701-32.837,32.836c0,18.136,14.701,32.838,32.837,32.838v0.001
			c7.979,0,16.673-3.095,20.98-8.794L181.748,72.679z M160.8,69.972c-11.534,0-20.884-9.556-20.884-21.346
			c0-11.787,9.351-21.344,20.884-21.344c11.534,0,20.883,9.557,20.883,21.344C181.683,60.416,172.333,69.972,160.8,69.972z"/>
		<path style="fill:#FFFFFF;" d="M315.935,72.679c0.288,3.275,2.91,7.445,7.453,7.445h2.658c1.03,0,1.874-0.844,1.874-1.874V19.839
			h-0.011c-0.054-0.984-0.868-1.773-1.863-1.773h-8.236c-0.996,0-1.81,0.789-1.865,1.773h-0.01v4.746
			c-5.047-6.215-13.003-8.795-20.981-8.795c-18.135,0-32.836,14.701-32.836,32.836c0,18.136,14.701,32.838,32.836,32.838v0.001
			c7.979,0,16.673-3.095,20.98-8.794L315.935,72.679z M294.986,69.972c-11.533,0-20.884-9.556-20.884-21.346
			c0-11.787,9.351-21.344,20.884-21.344c11.534,0,20.883,9.557,20.883,21.344C315.869,60.416,306.52,69.972,294.986,69.972z"/>
		<path style="fill:#FFFFFF;" d="M465.943,72.679c0.288,3.275,2.91,7.445,7.453,7.445h2.658c1.03,0,1.875-0.844,1.875-1.874V19.839
			h-0.012c-0.054-0.984-0.867-1.773-1.863-1.773h-8.236c-0.996,0-1.81,0.789-1.864,1.773h-0.011v4.746
			c-5.046-6.215-13.002-8.795-20.98-8.795c-18.136,0-32.837,14.701-32.837,32.836c0,18.136,14.701,32.838,32.837,32.838v0.001
			c7.978,0,16.673-3.095,20.979-8.794L465.943,72.679z M444.995,69.972c-11.535,0-20.885-9.556-20.885-21.346
			c0-11.787,9.35-21.344,20.885-21.344c11.533,0,20.882,9.557,20.882,21.344C465.877,60.416,456.528,69.972,444.995,69.972z"/>
		<path style="fill:#FFFFFF;" d="M401.714,74.687l-0.004-30.225h0c0-17.038-10.749-28.532-27.889-28.532
			c-8.183,0-15.669,4.69-17.259,8.795c-0.512-3.178-2.199-6.518-7.432-6.518h-2.667c-1.031,0-1.874,0.845-1.874,1.875v52.743
			c0,0.001,0,0.005,0,0.008v5.563v0.103h0.011c0.054,0.982,0.868,1.771,1.864,1.771h5.578h2.658c0.126,0,0.25-0.015,0.369-0.038
			c0.055-0.011,0.105-0.032,0.158-0.047c0.061-0.019,0.125-0.034,0.184-0.058c0.073-0.03,0.14-0.071,0.208-0.109
			c0.033-0.021,0.068-0.035,0.101-0.056c0.082-0.053,0.157-0.117,0.23-0.182c0.012-0.012,0.026-0.02,0.038-0.031
			c0.082-0.079,0.156-0.166,0.223-0.257c0.001-0.001,0.001-0.001,0.001-0.001c0.206-0.283,0.331-0.624,0.352-0.992h0.011v-0.103
			v-3.707v-0.974V43.994c0-9.15,7.419-16.569,16.57-16.569s16.57,7.419,16.57,16.569l0.008,28.841l0.002-0.01
			c0,0.025,0.004,0.052,0.004,0.079v5.492v0.103h0.011c0.055,0.982,0.868,1.771,1.864,1.771h5.575h2.661l0,0
			c0.127,0,0.25-0.015,0.369-0.038c0.049-0.009,0.094-0.028,0.142-0.042c0.067-0.02,0.137-0.036,0.201-0.062
			c0.067-0.028,0.129-0.066,0.192-0.103c0.039-0.022,0.08-0.038,0.117-0.062c0.076-0.05,0.146-0.11,0.214-0.17
			c0.018-0.016,0.037-0.028,0.054-0.044c0.078-0.075,0.147-0.156,0.211-0.242c0.005-0.006,0.01-0.011,0.015-0.018
			c0.203-0.281,0.327-0.619,0.349-0.985c0-0.003,0.001-0.005,0.001-0.005h0.011v-0.103v-3.707L401.714,74.687z"/>
		<path style="fill:#FFFFFF;" d="M213.411,64.313c5.498,3.81,11.5,5.659,17.268,5.659c5.494,0,11.174-2.849,11.174-7.806
			c0-6.619-12.377-7.649-20.153-10.292c-7.778-2.643-14.477-8.106-14.477-16.955c0-13.539,12.064-19.13,23.323-19.13
			c7.134,0,14.494,2.352,19.267,5.722c1.644,1.245,0.643,2.675,0.643,2.675l-4.556,6.506c-0.512,0.732-1.407,1.366-2.692,0.573
			c-1.285-0.793-5.792-3.983-12.661-3.983c-6.87,0-11.008,3.173-11.008,7.105c0,4.715,5.378,6.198,11.678,7.806
			c10.978,2.959,22.953,6.516,22.953,19.974c0,11.929-11.158,19.301-23.489,19.301c-9.346,0-17.302-2.664-23.975-7.561
			c-1.391-1.391-0.42-2.683-0.42-2.683l4.533-6.473C211.739,63.539,212.902,63.962,213.411,64.313z"/>
	</g>
	<g>
		<defs>
			<path id="SVGID_1_" d="M76.392,22.412c0,12.379-10.034,22.415-22.412,22.415c-12.378,0-22.412-10.036-22.412-22.415
				C31.568,10.036,41.602,0,53.98,0C66.358,0,76.392,10.036,76.392,22.412z M24.866,50.431c-12.378,0-22.412,10.032-22.412,22.41
				c0,12.378,10.034,22.412,22.412,22.412c12.378,0,22.413-10.034,22.413-22.412C47.279,60.462,37.244,50.431,24.866,50.431z
				 M83.094,50.428c-12.378,0-22.412,10.034-22.412,22.413c0,12.378,10.034,22.412,22.412,22.412
				c12.378,0,22.412-10.034,22.412-22.412C105.506,60.462,95.472,50.428,83.094,50.428z"/>
		</defs>
		<clipPath id="SVGID_2_">
			<use xlink:href="#SVGID_1_"  style="overflow:visible;"/>
		</clipPath>
		
			<radialGradient id="SVGID_3_" cx="-16513.2227" cy="3557.6863" r="75.2316" gradientTransform="matrix(0 -0.75 0.75 0 -2614.2849 -12329.4932)" gradientUnits="userSpaceOnUse">
			<stop  offset="0" style="stop-color:#FCB713"/>
			<stop  offset="0.6" style="stop-color:#EF5D8D"/>
			<stop  offset="0.9991" style="stop-color:#EF5555"/>
		</radialGradient>
		<path style="clip-path:url(#SVGID_2_);fill:url(#SVGID_3_);" d="M53.98-1c31.163,0,56.422,25.265,56.422,56.428
			c0,31.16-25.26,56.421-56.422,56.421c-31.162,0-56.423-25.261-56.423-56.421C-2.443,24.265,22.819-1,53.98-1z"/>
	</g>
</g>
</svg>
