<?xml version="1.0" encoding="utf-8"?>
<!-- Generator: Adobe Illustrator 17.1.0, SVG Export Plug-In . SVG Version: 6.00 Build 0)  -->
<!DOCTYPE svg PUBLIC "-//W3C//DTD SVG 1.1//EN" "http://www.w3.org/Graphics/SVG/1.1/DTD/svg11.dtd">
<svg version="1.1" id="Layer_1" xmlns="http://www.w3.org/2000/svg" xmlns:xlink="http://www.w3.org/1999/xlink" x="0px" y="0px"
	 viewBox="352 330.3 200 200" enable-background="new 352 330.3 200 200" xml:space="preserve">
<g>
	<path d="M522.9,377.4c-6.4-14-21.4-24.7-21.9-25.1c-10-8.7-20.3-13.2-30.8-13.2c-16.5,0-28,10.9-32.2,15.6
		c-7.9,8.8-9.5,17.8-11.2,27.4c-0.7,4.2-1.5,8.5-2.8,12.8c-2,6.7-7,10.2-13.4,14.5c-6.4,4.4-14.3,9.9-21.1,20.6
		c-13.6,21.2-14.8,42.3-3.9,66.5c7.3,16.1,20.3,24.5,37.7,24.5c7.4,0,15.4-1.6,23.8-4.7c29.8-11.1,48.7-35.2,55.4-45
		c2.5-3.6,4.9-6.9,7.3-10.1c7.3-10,13.1-17.9,13-24.9c0-2.3,0.4-6.4,1-11.7C525.4,409.9,527.7,387.8,522.9,377.4z M521.5,424.4
		c-0.6,5.4-1,9.6-1,12c0.1,6.2-5.5,13.8-12.5,23.5c-2.4,3.2-4.8,6.6-7.3,10.2c-6.6,9.6-25.1,33.3-54.3,44.2c-8.1,3-15.8,4.5-23,4.5
		c-16.5,0-28.8-8-35.6-23.2c-10.7-23.7-9.5-43.5,3.8-64.3c6.6-10.3,14-15.4,20.5-19.9c6.4-4.5,12-8.3,14.2-15.8
		c1.4-4.5,2.1-8.9,2.9-13.1c1.6-9.2,3.2-18,10.6-26.3c4-4.5,14.9-14.8,30.5-14.8c9.9,0,19.7,4.2,29.4,12.7
		c0.2,0.1,15.1,10.9,21.3,24.3C525.4,388.2,523,410,521.5,424.4z"/>
	<path d="M501.4,360.8C501.5,360.8,501.5,360.8,501.4,360.8c0.2,0,0.4-0.1,0.5-0.3c0.1-0.2,0.1-0.4,0-0.6c-2.2-3.2-6.9-7.4-13.5-9.3
		c-0.2-0.1-0.5,0-0.6,0.2c-0.1,0.2-0.2,0.4-0.1,0.6C488,351.8,492.4,360.2,501.4,360.8z M500.2,359.5c-5.6-0.9-9.1-5.1-10.6-7.3
		C494.5,353.9,498.1,356.9,500.2,359.5z"/>
	<path d="M386.2,483.6c-0.2-0.1-0.5-0.1-0.7,0c-0.2,0.1-0.3,0.4-0.2,0.6c0.3,1.1,0.5,1.9,0.6,2.7c0.4,2,0.7,3.7,3.4,7.5
		c0.1,0.2,0.3,0.2,0.5,0.2c0,0,0.1,0,0.1,0c0.2,0,0.4-0.2,0.5-0.4C392.6,487.8,386.3,483.7,386.2,483.6z M389.6,492.8
		c-1.9-2.9-2.2-4.4-2.5-6c-0.1-0.4-0.1-0.7-0.2-1.1C388.3,487,390.2,489.5,389.6,492.8z"/>
	<path d="M449.3,375.3c-1.7-1.5-3.9-1.9-4.8-0.9c-0.9,1-0.2,3,1.6,4.6c1.1,0.9,2.3,1.5,3.3,1.5c0.6,0,1.1-0.2,1.4-0.6
		C451.8,378.9,451.1,376.9,449.3,375.3z M450,379.2c-0.1,0.2-0.4,0.2-0.6,0.2c-0.7,0-1.7-0.5-2.6-1.2c-1.4-1.2-1.8-2.6-1.5-3
		c0.1-0.2,0.4-0.2,0.6-0.2c0.7,0,1.7,0.5,2.6,1.2C449.9,377.4,450.3,378.8,450,379.2z"/>
	<path d="M477.2,469.6c-1.2-0.5-2.9,0.9-3.7,3.1c-0.8,2.2-0.5,4.3,0.8,4.8c0.2,0.1,0.4,0.1,0.6,0.1c1.2,0,2.5-1.3,3.2-3.2
		c0.5-1.4,0.6-2.9,0.1-3.8C478,470,477.7,469.7,477.2,469.6z M477,473.9c-0.6,1.7-1.8,2.6-2.3,2.4c-0.5-0.2-0.8-1.6-0.1-3.3
		c0.6-1.5,1.5-2.5,2.1-2.5c0.1,0,0.1,0,0.1,0c0.1,0,0.2,0.2,0.3,0.4C477.4,471.5,477.5,472.7,477,473.9z"/>
	<path d="M440.5,493.3c0,0-4.8-0.6-9.9-0.6c-2.9,0-5.4,0.2-7.3,0.6c-0.2,0-0.4,0.3-0.5,0.5c0,0.2,0.1,0.5,0.3,0.6
		c3.1,1.3,5.1,1.8,7.3,1.8c2.5,0,5.3-0.7,10-1.8c0.3-0.1,0.5-0.3,0.4-0.6C441,493.6,440.8,493.4,440.5,493.3z M425.6,494.1
		c1.5-0.2,3.2-0.3,5.1-0.3c2.3,0,4.5,0.1,6.3,0.3C431.8,495.3,429.6,495.6,425.6,494.1z"/>
	<path d="M496,389.3c-0.3-0.1-0.6,0.1-0.7,0.4c-0.1,0.3,0,0.6,0.3,0.7c2,0.9,3.4,2.1,4.8,3.2c2,1.7,4,3.4,7.5,3.4
		c1.1,0,2.3-0.2,3.6-0.5c0.1,0,0.2-0.1,0.3-0.2c0.1-0.1,0.3-0.3,0.1-0.7C511.5,394.1,506.1,392,496,389.3z M507.9,395.8
		c-3.1,0-4.8-1.4-6.8-3.1c-0.5-0.4-0.9-0.8-1.5-1.2c7.5,2.2,10,3.5,10.8,4.1C509.5,395.7,508.7,395.8,507.9,395.8z"/>
	<path d="M429.7,400.4c-0.3-0.1-0.6,0.1-0.7,0.4c-0.1,0.3,0,0.6,0.3,0.7c2,0.9,3.4,2.1,4.8,3.2c2,1.7,3.9,3.4,7.5,3.4l0,0
		c1.1,0,2.3-0.2,3.6-0.5c0.1,0,0.2-0.1,0.3-0.2c0.1-0.1,0.3-0.3,0.1-0.7C445.2,405.2,439.8,403.1,429.7,400.4z M441.6,406.9
		L441.6,406.9c-3.1,0-4.8-1.4-6.8-3.1c-0.5-0.4-0.9-0.8-1.5-1.2c7.5,2.2,10,3.5,10.8,4.1C443.3,406.8,442.4,406.9,441.6,406.9z"/>
	<path d="M468,442.5c-1.2,0-2.8,1.4-3.9,2.7c-1.6,1.8-2.7,4.1-1.7,5c0.1,0.1,0.4,0.3,0.8,0.3c1.2,0,2.9-1.4,3.9-2.7
		c1.1-1.2,2.2-3,2.1-4.2c0-0.4-0.2-0.7-0.4-0.8C468.6,442.6,468.3,442.5,468,442.5z M466.2,447c-1.4,1.6-2.6,2.3-3,2.3
		c-0.1-0.3,0.3-1.6,1.8-3.3c1.4-1.6,2.6-2.3,3-2.3C468.1,443.9,467.7,445.2,466.2,447z"/>
	<path d="M497.1,427.2c-1.2,0-2.8,1.4-3.9,2.7c-1.1,1.2-2.2,3-2.1,4.2c0,0.4,0.2,0.7,0.4,0.8c0.1,0.1,0.4,0.3,0.8,0.3
		c1.2,0,2.8-1.4,3.9-2.7c1.4-1.6,2.2-3.2,2.1-4.2c0-0.4-0.2-0.7-0.4-0.8C497.7,427.3,497.4,427.2,497.1,427.2z M495.3,431.7
		c-1.4,1.6-2.6,2.3-3,2.3c-0.1-0.3,0.3-1.6,1.8-3.3c1.4-1.6,2.6-2.3,3-2.3C497.2,428.6,496.8,429.9,495.3,431.7z"/>
	<path d="M418.4,458c-1.2,0-2.8,1.4-3.9,2.7c-1.6,1.8-2.7,4.1-1.7,5c0.1,0.1,0.4,0.3,0.8,0.3c1.2,0,2.9-1.4,3.9-2.7
		c1.3-1.6,2.2-3.2,2.1-4.2c0-0.4-0.2-0.7-0.4-0.8C418.9,458.1,418.7,458,418.4,458z M416.5,462.5c-1.4,1.6-2.6,2.3-3,2.3
		c-0.1-0.3,0.3-1.6,1.8-3.3c1.4-1.6,2.6-2.3,3-2.3C418.5,459.4,418.1,460.7,416.5,462.5z"/>
	<path d="M394.7,431.8c-1.2,0-2.8,1.4-3.9,2.7c-1.6,1.8-2.7,4.1-1.7,5c0.2,0.2,0.5,0.3,0.8,0.3c1.2,0,2.8-1.4,3.9-2.7
		c1.1-1.2,2.2-3,2.1-4.1c0-0.4-0.2-0.7-0.4-0.8C395.3,432,395,431.8,394.7,431.8z M392.8,436.3c-1.4,1.6-2.6,2.3-3,2.3
		c-0.1-0.3,0.3-1.6,1.8-3.3c1.4-1.6,2.6-2.3,3-2.3C394.7,433.2,394.4,434.5,392.8,436.3z"/>
	<path d="M505.2,453.8c-0.9,0-2.6,1.8-3.2,2.6c-1.8,2.1-2.4,3.5-1.8,4c0.1,0.1,0.3,0.2,0.5,0.2c0.9,0,2.5-1.8,3.2-2.6
		c0.6-0.8,2.1-2.6,2.1-3.5c0-0.2-0.1-0.4-0.2-0.5C505.6,453.8,505.4,453.8,505.2,453.8z M503,457.2c-0.5,0.5-0.9,1-1.2,1.3
		c0.3-0.4,0.6-0.9,1.1-1.4c0.5-0.5,0.9-1,1.2-1.3C503.9,456.1,503.5,456.6,503,457.2z"/>
</g>
<text transform="matrix(1 0 0 1 100 920)" font-family="'HelveticaNeue-Bold'" font-size="40">Created by Snpr Cartman</text>
<text transform="matrix(1 0 0 1 100 960)" font-family="'HelveticaNeue-Bold'" font-size="40">from the Noun Project</text>
</svg>
