<?xml version="1.0" encoding="utf-8"?>
<!-- Generator: Adobe Illustrator 17.1.0, SVG Export Plug-In . SVG Version: 6.00 Build 0)  -->
<!DOCTYPE svg PUBLIC "-//W3C//DTD SVG 1.1//EN" "http://www.w3.org/Graphics/SVG/1.1/DTD/svg11.dtd">
<svg version="1.1" id="Layer_1" xmlns="http://www.w3.org/2000/svg" xmlns:xlink="http://www.w3.org/1999/xlink" x="0px" y="0px"
	 viewBox="0 0 944 944" enable-background="new 0 0 944 944" xml:space="preserve">
<text transform="matrix(1 0 0 1 -907.999 3278.8008)" font-family="'HelveticaNeue-Bold'" font-size="200">Created by Snpr Cartman</text>
<text transform="matrix(1 0 0 1 -907.999 3478.8008)" font-family="'HelveticaNeue-Bold'" font-size="200">from the Noun Project</text>
<path fill="#5D5D5D" d="M-1080-576L-1080-576z"/>
<g>
	<g id="XMLID_1_">
		<g>
			<path d="M723.4,127.5c1,0,2-0.5,2.5-1.5s0.5-2,0-3c-11-16-34.5-37-67.5-46.5c-1-0.5-2.5,0-3,1s-1,2-0.5,3
				C656.4,82.5,678.4,124.5,723.4,127.5z M830.9,210.5c24,52,12.5,162.5,4.5,236c-3,26.5-5,47-5,58.5c0.5,35-28.5,74.5-65,124.5
				c-12,16-24,32.5-36.5,50.5c-33.5,49-128,169.5-277,225c-42,15.5-82,23.5-119,23.5c-87,0-152-42-188.5-122.5
				c-54.5-121-48.5-226.5,19.5-332.5c34-53.5,73.5-81,105.5-103c32-21.5,57-39,67-72.5c6.5-21.5,10.5-43,14-64
				c8.5-48,16.5-93,56-137c21-23.5,78.5-78,161-78c52.5,0,104,22.5,154,66C723.9,87,798.9,140.5,830.9,210.5z M775.4,305
				c0.5-0.5,1.5-1.5,0.5-3.5c-2-7.5-29-18-79.5-31.5c-1.5-0.5-3,0.5-3.5,2s0,3,1.5,3.5c10,4.5,17,10.5,24,16c10,8.5,20,17,37.5,17
				c5.5,0,11.5-1,18-2.5C774.4,306,774.9,305.5,775.4,305z M746.4,596c0-1-0.5-2-1-2.5c-1-1-2-1-3-1c-4.5,0-13,9-16,13
				c-9,10.5-12,17.5-9,20c0.5,0.5,1.5,1,2.5,1c4.5,0,12.5-9,16-13C738.9,609.5,746.4,600.5,746.4,596z M697.4,486c7-8,11-16,10.5-21
				c0-2-1-3.5-2-4c-1-1-2.5-1.5-4-1.5c-6,0-14,7-19.5,13.5c-5.5,6-11,15-10.5,21c0,2,1,3.5,2,4c0.5,0.5,2,1.5,4,1.5
				C683.9,499.5,691.9,492.5,697.4,486z M606.9,695.5c2.5-7,3-14.5,0.5-19c-1-3-2.5-4.5-5-5c-6-2.5-14.5,4.5-18.5,15.5
				s-2.5,21.5,4,24c1,0.5,2,0.5,3,0.5C596.9,711.5,603.4,705,606.9,695.5z M551.9,562.5c5.5-6,11-15,10.5-21c0-2-1-3.5-2-4
				c-1-1-2.5-1.5-4-1.5c-6,0-14,7-19.5,13.5c-8,9-13.5,20.5-8.5,25c0.5,0.5,2,1.5,4,1.5C538.4,576,546.9,569,551.9,562.5z
				 M470.4,223c5-5,1.5-15-7.5-23c-8.5-7.5-19.5-9.5-24-4.5s-1,15,8,23c5.5,4.5,11.5,7.5,16.5,7.5C466.4,226,468.9,225,470.4,223z
				 M443.9,360.5c0.5-0.5,1.5-1.5,0.5-3.5c-2-7.5-29-18-79.5-31.5c-1.5-0.5-3,0.5-3.5,2s0,3,1.5,3.5c10,4.5,17,10.5,24,16
				c10,8.5,19.5,17,37.5,17c2.8,0,5.6-0.2,8.6-0.7s6.1-1.1,9.4-1.8C442.9,361.5,443.4,361,443.9,360.5z M420.4,792.5
				c1-1,0-2-1.5-2.5c0,0-24-3-49.5-3c-14.5,0-27,1-36.5,3c-1,0-2,1.5-2.5,2.5c0,1,0.5,2.5,1.5,3c15.5,6.5,25.5,9,36.5,9
				c12.5,0,26.5-3.5,50-9C419.9,795,420.9,794,420.4,792.5z M303.9,640c6.5-8,11-16,10.5-21c0-2-1-3.5-2-4c-1.5-1-2.5-1.5-4-1.5
				c-6,0-14,7-19.5,13.5c-8,9-13.5,20.5-8.5,25c0.5,0.5,2,1.5,4,1.5C290.4,653.5,298.9,646.5,303.9,640z M185.4,509
				c5.5-6,11-15,10.5-20.5c0-2-1-3.5-2-4c-1-1-2.5-2-4-2c-6,0-14,7-19.5,13.5c-8,9-13.5,20.5-8.5,25c1,1,2.5,1.5,4,1.5
				C171.9,522.5,179.9,515.5,185.4,509z M168.4,794.5c11-32-20.5-52.5-21-53c-1-0.5-2.5-0.5-3.5,0s-1.5,2-1,3
				c1.5,5.5,2.5,9.5,3,13.5c2,10,3.5,18.5,17,37.5c0.5,1,1.5,1,2.5,1h0.5C166.9,796.5,167.9,795.5,168.4,794.5z"/>
			<path d="M775.9,301.5c1,2,0,3-0.5,3.5s-1,1-1.5,1c-6.5,1.5-12.5,2.5-18,2.5c-17.5,0-27.5-8.5-37.5-17c-7-5.5-14-11.5-24-16
				c-1.5-0.5-2-2-1.5-3.5s2-2.5,3.5-2C746.9,283.5,773.9,294,775.9,301.5z M755.9,302.5c4,0,8-0.5,12.5-1c-4-3-16.5-9.5-54-20.5
				c3,2,5,4,7.5,6C731.9,295.5,740.4,302.5,755.9,302.5z"/>
			<path d="M745.4,593.5c0.5,0.5,1,1.5,1,2.5c0,4.5-7.5,13.5-10.5,17.5c-3.5,4-11.5,13-16,13c-1,0-2-0.5-2.5-1c-3-2.5,0-9.5,9-20
				c3-4,11.5-13,16-13C743.4,592.5,744.4,592.5,745.4,593.5z M731.4,609.5c2.5-3,4.5-5.5,5.5-7c-1.5,1.5-3.5,4-6,6.5s-4,5-5.5,7
				C726.9,614.5,728.9,612,731.4,609.5z"/>
			<path d="M725.9,123c0.5,1,0.5,2,0,3s-1.5,1.5-2.5,1.5c-45-3-67-45-68.5-47c-0.5-1,0-2,0.5-3s2-1.5,3-1
				C691.4,86,714.9,107,725.9,123z M717.4,121c-10.5-13-28.5-28-53-36.5C671.9,95.5,689.4,116.5,717.4,121z"/>
			<path d="M707.9,465c0.5,5-3.5,13-10.5,21c-5.5,6.5-13.5,13.5-19.5,13.5c-2,0-3.5-1-4-1.5c-1-0.5-2-2-2-4c-0.5-6,5-15,10.5-21
				c5.5-6.5,13.5-13.5,19.5-13.5c1.5,0,3,0.5,4,1.5C706.9,461.5,707.9,463,707.9,465z M692.9,482c7.5-9,9.5-15.5,9-16.5
				c-2,0-8,3.5-15,11.5c-7.5,8.5-9.5,15-9,16.5C679.9,493.5,685.9,490,692.9,482z"/>
			<path d="M607.4,676.5c2.5,4.5,2,12-0.5,19c-3.5,9.5-10,16-16,16c-1,0-2,0-3-0.5c-6.5-2.5-8-13-4-24s12.5-18,18.5-15.5
				C604.9,672,606.4,673.5,607.4,676.5z M601.4,693c2.5-6,2-12,0.5-15c-0.5-1-1-2-1.5-2c0,0,0,0-0.5,0c-3,0-7.5,5-10.5,12.5
				c-3.5,8.5-2,15.5,0.5,16.5S598.4,701.5,601.4,693z"/>
			<path d="M562.4,541.5c0.5,6-5,15-10.5,21c-5,6.5-13.5,13.5-19.5,13.5c-2,0-3.5-1-4-1.5c-5-4.5,0.5-16,8.5-25
				c5.5-6.5,13.5-13.5,19.5-13.5c1.5,0,3,0.5,4,1.5C561.4,538,562.4,539.5,562.4,541.5z M547.4,558.5c7.5-9,9.5-15.5,9-16.5
				c-2,0-8,3.5-15,11.5c-7.5,8.5-9.5,15-9,16.5C534.4,570,540.4,566.5,547.4,558.5z"/>
			<path d="M462.9,200c9,8,12.5,18,7.5,23c-1.5,2-4,3-7,3c-5,0-11-3-16.5-7.5c-9-8-12.5-18-8-23S454.4,192.5,462.9,200z
				 M466.4,219.5c1.5-2-0.5-9-7.5-15c-4.5-3.5-9.5-6-13-6c-1,0-2.5,0-3,1c-1.5,2,0.5,9,7.5,15c4.5,3.5,9.5,6,13,6
				C464.4,220.5,465.9,220.5,466.4,219.5z"/>
			<path d="M444.4,357c1,2,0,3-0.5,3.5s-1,1-1.5,1c-3.2,0.8-6.4,1.4-9.4,1.8s-5.9,0.7-8.6,0.7c-18,0-27.5-8.5-37.5-17
				c-7-5.5-14-11.5-24-16c-1.5-0.5-2-2-1.5-3.5s2-2.5,3.5-2C415.4,339,442.4,349.5,444.4,357z M424.4,358c4,0,8.5-0.5,12.5-1
				c-4-3-16.5-9.5-54-20.5c3,2,5,4,7.5,6C400.4,351,408.9,358,424.4,358z"/>
			<path d="M418.9,790c1.5,0.5,2.5,1.5,1.5,2.5c0.5,1.5-0.5,2.5-2,3c-23.5,5.5-37.5,9-50,9c-11,0-21-2.5-36.5-9c-1-0.5-1.5-2-1.5-3
				c0.5-1,1.5-2.5,2.5-2.5c9.5-2,22-3,36.5-3C394.9,787,418.9,790,418.9,790z M401.4,794c-9-1-20-1.5-31.5-1.5
				c-9.5,0-18,0.5-25.5,1.5C364.4,801.5,375.4,800,401.4,794z"/>
			<path d="M314.4,619c0.5,5-4,13-10.5,21c-5,6.5-13.5,13.5-19.5,13.5c-2,0-3.5-1-4-1.5c-5-4.5,0.5-16,8.5-25
				c5.5-6.5,13.5-13.5,19.5-13.5c1.5,0,2.5,0.5,4,1.5C313.4,615.5,314.4,617,314.4,619z M298.9,636c8-9,10-15.5,9-16.5
				c-2,0-8,3.5-15,11.5c-7.5,8.5-9.5,15-9,16.5C285.9,647.5,291.9,644,298.9,636z"/>
			<path d="M195.9,488.5c0.5,5.5-5,14.5-10.5,20.5c-5.5,6.5-13.5,13.5-19.5,13.5c-1.5,0-3-0.5-4-1.5c-5-4.5,0.5-16,8.5-25
				c5.5-6.5,13.5-13.5,19.5-13.5c1.5,0,3,1,4,2C194.9,485,195.9,486.5,195.9,488.5z M180.4,505c8-9,9.5-15.5,9-16.5
				c-2,0-8,3.5-15,11.5c-7.5,8.5-9.5,15-9,16.5C167.4,516.5,173.4,513,180.4,505z"/>
			<path d="M147.4,741.5c0.5,0.5,32,21,21,53c-0.5,1-1.5,2-2.5,2h-0.5c-1,0-2,0-2.5-1c-13.5-19-15-27.5-17-37.5c-0.5-4-1.5-8-3-13.5
				c-0.5-1,0-2.5,1-3S146.4,741,147.4,741.5z M164.4,787.5c3-16.5-6.5-29-13.5-35.5c0.5,2,0.5,3.5,1,5.5
				C153.4,765.5,154.9,773,164.4,787.5z"/>
		</g>
		<g>
		</g>
	</g>
</g>
</svg>
